<?xml version="1.0" encoding="utf-8"?><svg viewBox="0 0 28 26" xmlns="http://www.w3.org/2000/svg" xmlns:xlink="http://www.w3.org/1999/xlink"><style>:root>svg{display:none}:root>svg:target{display:block}</style><svg viewBox="0 0 25 23" id="email" xmlns="http://www.w3.org/2000/svg"><path d="M21.557 3.05H3.229C1.945 3.05 1 4.109 1 5.28v11.888c0 1.23 1 2.229 2.229 2.229h18.328c1.229 0 2.229-1 2.229-2.229V5.28c0-1.19-.962-2.23-2.23-2.23zM3.229 4.538h18.328c.167 0 .337.061.468.17l-9.107 9.107c-.29.29-.76.29-1.05 0L2.76 4.707c.13-.108.3-.17.469-.17zm19.07 12.631c0 .41-.333.743-.742.743H3.229a.744.744 0 01-.743-.743V6.534l8.331 8.331a2.23 2.23 0 003.151 0L22.3 6.534v10.634z"/></svg><svg viewBox="0 0 24 24" id="fc" xmlns="http://www.w3.org/2000/svg"><g clip-path="url(#bclip0_1_250)"><path d="M6.812 13.937H9.33v9.312c0 .414.335.75.75.75l4.007.001a.75.75 0 00.75-.75v-9.312h2.387a.75.75 0 00.744-.657l.498-4a.75.75 0 00-.744-.843h-2.885c.113-2.471-.435-3.202 1.172-3.202 1.088-.13 2.804.421 2.804-.75V.909a.75.75 0 00-.648-.743A26.926 26.926 0 0015.071 0c-7.01 0-5.567 7.772-5.74 8.437H6.812a.75.75 0 00-.75.75v4c0 .414.336.75.75.75zm.75-3.999h2.518a.75.75 0 00.75-.75V6.037c0-2.883 1.545-4.536 4.24-4.536.878 0 1.686.043 2.242.087v2.149c-.402.205-3.976-.884-3.976 2.697v2.755c0 .414.336.75.75.75h2.786l-.312 2.5h-2.474a.75.75 0 00-.75.75V22.5h-2.505v-9.312a.75.75 0 00-.75-.75H7.562v-2.5z"/></g><defs><clipPath id="bclip0_1_250"><path d="M0 0h24v24H0z"/></clipPath></defs></svg><svg viewBox="0 0 25 26" id="gps" xmlns="http://www.w3.org/2000/svg"><g clip-path="url(#cclip0_1_67)"><path d="M21.651 8.25C21.194 3.666 17.293.002 12.5.002 7.428.002 3.301 4.128 3.301 9.2c0 2.005.63 3.905 1.823 5.496l6.703 9.947a.812.812 0 001.346 0l6.698-9.94a9.201 9.201 0 001.78-6.454zm-3.09 5.495a.777.777 0 00-.025.035L12.5 22.738l-6.042-8.965A7.484 7.484 0 014.924 9.2c0-4.178 3.399-7.576 7.576-7.576 3.846 0 7.157 2.98 7.536 6.786a7.583 7.583 0 01-1.475 5.334z"/><path d="M12.5 5.142A4.063 4.063 0 008.443 9.2a4.063 4.063 0 004.059 4.059A4.063 4.063 0 0016.559 9.2a4.063 4.063 0 00-4.058-4.058zm0 6.493A2.438 2.438 0 0110.067 9.2 2.438 2.438 0 0112.5 6.765 2.438 2.438 0 0114.936 9.2a2.438 2.438 0 01-2.435 2.435z"/></g><defs><clipPath id="cclip0_1_67"><path transform="translate(0 .002)" d="M0 0h25v25H0z"/></clipPath></defs></svg><svg viewBox="0 0 25 23" id="phone" xmlns="http://www.w3.org/2000/svg"><path fill-rule="evenodd" clip-rule="evenodd" d="M5.286 9.109a18.33 18.33 0 009.496 9.226l.013.005.813.363a2.394 2.394 0 002.916-.786l1.356-1.878a.266.266 0 00-.048-.363l-2.368-1.912a.266.266 0 00-.381.049l-.922 1.244a.798.798 0 01-.97.252 14.253 14.253 0 01-7.1-7.103.799.799 0 01.252-.971l1.244-.922a.266.266 0 00.048-.381l-1.91-2.37a.266.266 0 00-.363-.049L5.475 4.877a2.397 2.397 0 00-.779 2.934l.59 1.296v.002zm8.866 10.693A19.926 19.926 0 013.834 9.774l-.001-.003-.59-1.299a3.995 3.995 0 011.297-4.89l1.887-1.364a1.862 1.862 0 012.54.34l1.911 2.37c.665.825.51 2.037-.34 2.668l-.713.529a12.66 12.66 0 005.447 5.45l.528-.713a1.862 1.862 0 012.666-.341l2.368 1.911c.77.623.92 1.74.34 2.542l-1.356 1.879a3.99 3.99 0 01-4.86 1.31l-.806-.36z"/></svg><svg viewBox="0 0 28 24" id="vk" xmlns="http://www.w3.org/2000/svg"><path d="M14.16 20.8c3.819 0 2.457-2.462 2.752-3.17-.005-.528-.01-1.037.008-1.346.242.07.813.364 1.992 1.531 1.82 1.87 2.286 2.985 3.757 2.985h2.707c.858 0 1.304-.362 1.528-.665.215-.294.427-.809.196-1.61-.604-1.932-4.127-5.266-4.345-5.618.033-.065.085-.15.113-.196h-.002c.695-.935 3.348-4.983 3.739-6.602a.021.021 0 00.002-.009c.211-.74.017-1.219-.183-1.49-.301-.405-.78-.61-1.429-.61h-2.707c-.906 0-1.594.465-1.941 1.313-.582 1.506-2.217 4.604-3.442 5.7a73.111 73.111 0 01.008-3.62C16.953 5.672 17.08 4 15.328 4h-4.255c-1.098 0-2.149 1.22-1.011 2.67.994 1.27.357 1.978.572 5.502-.836-.913-2.323-3.378-3.375-6.529-.295-.852-.741-1.642-1.999-1.642H2.553C1.456 4.001.8 4.611.8 5.631.8 7.922 5.782 20.8 14.16 20.8zM5.26 5.681c.24 0 .263 0 .44.512C6.777 9.422 9.193 14.2 10.957 14.2c1.326 0 1.326-1.383 1.326-1.904l-.001-4.146c-.073-1.372-.563-2.056-.886-2.47l3.859.004c.002.02-.022 4.587.01 5.693 0 1.572 1.226 2.472 3.14.501 2.018-2.32 3.414-5.787 3.47-5.928.082-.202.154-.27.413-.27h2.718c0 .003 0 .007-.002.01-.247 1.176-2.69 4.924-3.508 6.087a.956.956 0 00-.037.056c-.36.598-.652 1.26.05 2.189.064.078.23.262.472.517.753.79 3.333 3.495 3.562 4.57-.152.024-.317.006-2.874.012-.545 0-.97-.829-2.595-2.497-1.46-1.447-2.409-2.039-3.273-2.039-1.676 0-1.554 1.386-1.538 3.061.005 1.817-.006 1.242.006 1.356-.098.04-.378.118-1.11.118-6.98 0-11.524-11.28-11.7-13.436.061-.005.894-.002 2.801-.003z"/></svg><svg viewBox="0 0 24 24" id="yt" xmlns="http://www.w3.org/2000/svg"><g clip-path="url(#fclip0_1_247)"><path d="M9.94 7.856a.75.75 0 00-1.135.644v7c0 .585.638.939 1.134.645l5.869-3.495a.751.751 0 00.001-1.29l-5.87-3.504zm.365 6.325V9.82l3.655 2.183-3.655 2.177z"/><path d="M19.904 3.27c-4.653-.69-11.153-.69-15.808 0C2.234 3.548.767 5.01.447 6.908c-.596 3.523-.596 6.664 0 10.186.32 1.899 1.787 3.36 3.649 3.636 2.332.346 5.124.519 7.915.519 2.786 0 5.571-.172 7.894-.518 1.86-.276 3.326-1.737 3.648-3.636.596-3.523.596-6.665 0-10.188-.32-1.897-1.787-3.36-3.649-3.635zm2.17 13.574c-.213 1.256-1.173 2.222-2.39 2.402-4.518.67-10.838.67-15.368-.001-1.218-.181-2.179-1.146-2.391-2.402-.574-3.394-.574-6.291 0-9.687.213-1.256 1.173-2.22 2.392-2.402 2.262-.335 4.973-.503 7.682-.503 2.711 0 5.422.168 7.684.503 1.218.18 2.179 1.146 2.391 2.402.574 3.396.574 6.293 0 9.688z"/></g><defs><clipPath id="fclip0_1_247"><path d="M0 0h24v24H0z"/></clipPath></defs></svg></svg>