<?xml version="1.0" encoding="utf-8"?><svg viewBox="0 0 159 110" xmlns="http://www.w3.org/2000/svg" xmlns:xlink="http://www.w3.org/1999/xlink"><style>:root>svg{display:none}:root>svg:target{display:block}</style><svg fill="none" viewBox="0 0 110 110" id="advantage" xmlns="http://www.w3.org/2000/svg"><path d="M22.733 16.348v-2.075a1.466 1.466 0 112.933 0v2.075a1.466 1.466 0 11-2.933 0zm1.466 9.767c.81 0 1.467-.657 1.467-1.467v-2.075a1.466 1.466 0 10-2.933 0v2.075c0 .81.655 1.467 1.466 1.467zm-5.187-5.188h2.075a1.466 1.466 0 100-2.934h-2.075a1.466 1.466 0 100 2.934zm8.3 0h2.075a1.466 1.466 0 100-2.934H27.31a1.466 1.466 0 100 2.934zm46.576 1.644a1.462 1.462 0 002.074 0L77 21.534l1.037 1.037a1.463 1.463 0 002.074 0 1.466 1.466 0 000-2.074l-1.037-1.037 1.037-1.037a1.466 1.466 0 10-2.074-2.074L77 17.386l-1.037-1.037a1.466 1.466 0 10-2.074 2.074l1.037 1.037-1.037 1.037a1.466 1.466 0 000 2.074zm-30.622 2.756a1.467 1.467 0 100-2.934 1.467 1.467 0 000 2.934zm14.666-8.8a1.467 1.467 0 100-2.934 1.467 1.467 0 000 2.934zm7.334 10.266a1.467 1.467 0 100-2.933 1.467 1.467 0 000 2.933zm8.8 23.467a5.873 5.873 0 01-5.867 5.867H40.333a5.873 5.873 0 01-5.867-5.867 5.873 5.873 0 015.867-5.867h27.866a5.873 5.873 0 015.867 5.867zm-7.52 19.084c.248.445.248.987 0 1.432l-5.332 9.534c-.26.463-.75.75-1.28.75H49.27a1.467 1.467 0 01-1.28-.75l-5.331-9.534a1.472 1.472 0 010-1.432l5.33-9.533c.26-.464.75-.75 1.281-.75h10.663c.532 0 1.022.286 1.28.75l5.333 9.533zm-2.96.716l-4.514-8.067h-8.941l-4.512 8.067 4.512 8.067h8.941l4.514-8.067zm-11.857-5.928a1.469 1.469 0 00-1.968.656l-1.94 3.883a1.466 1.466 0 102.623 1.312l1.941-3.883a1.467 1.467 0 00-.656-1.968zm45.803 31.595c0 .81-.655 1.466-1.466 1.466H13.933a1.466 1.466 0 110-2.933h11.733v-5.867h-4.4c-.81 0-1.467-.656-1.467-1.466V39.993c-.81 0-1.466-.656-1.466-1.466V32.66c0-.81.655-1.467 1.466-1.467h70.4c.81 0 1.467.657 1.467 1.467v5.867c0 .81-.656 1.466-1.467 1.466v46.934c0 .81-.656 1.466-1.466 1.466h-4.4v5.867h11.733c.81 0 1.466.657 1.466 1.467zM81.4 88.393h-2.933v5.867h2.933v-5.867zm-46.933 0v5.867h41.067v-5.867H34.466zm-13.2-51.333h67.467v-2.933H21.266v2.933zm1.467 48.4h64.533V39.993H22.732V85.46zm5.866 8.8h2.933v-5.867H28.6v5.867z" fill="#fff"/></svg><svg fill="none" viewBox="0 0 110 110" id="advantage2" xmlns="http://www.w3.org/2000/svg"><path d="M77.008 15.152a1.568 1.568 0 113.136-.006 1.568 1.568 0 01-3.136.006zm16.237 3.032a1.568 1.568 0 10-.005-3.136 1.568 1.568 0 00.005 3.136zm-10.267 4.4a1.568 1.568 0 10-.005-3.136 1.568 1.568 0 00.005 3.136zm14.555 38.905v33.464a1.467 1.467 0 01-2.933 0V61.489a6.143 6.143 0 00-6.137-6.136H21.536a6.143 6.143 0 00-6.137 6.136v33.464a1.467 1.467 0 01-2.933 0V61.489c0-4.327 3.05-7.951 7.11-8.85l23.336-36.42c.268-.42.731-.675 1.23-.676h.005c.496 0 .958.251 1.23.667l3.167 4.874c1.846-3.218 5.295-5.331 9.12-5.331 5.81 0 10.536 4.726 10.536 10.535 0 5.446-4.155 9.94-9.461 10.48l1.593 2.451h9.334c.81 0 1.467.657 1.467 1.467v11.733h11.733v-1.466H77a1.466 1.466 0 01-1.353-2.031l7.333-17.6a1.466 1.466 0 012.707 0l7.333 17.6a1.465 1.465 0 01-1.353 2.03H85.8v1.467h2.664c5 0 9.07 4.07 9.07 9.07zM79.199 48.02h10.267L84.333 35.7 79.2 48.02zm-11-5.866H55v10.266h13.2V42.153zM50.434 23.99l6.399 9.845c.274.03.55.054.832.054 4.192 0 7.602-3.41 7.602-7.601 0-4.192-3.41-7.602-7.602-7.602-3.306 0-6.236 2.174-7.231 5.304zm-14.496 8.55l2.678 2.677 4.494-4.494a1.466 1.466 0 012.074 0l4.495 4.494 2.76-2.76-8.283-12.743-8.218 12.826zM85.8 84.686c0 .81-.656 1.467-1.466 1.467H37.4a1.467 1.467 0 010-2.934h4.4v-7.333H22.733a1.467 1.467 0 010-2.933h7.333V61.219c0-.81.657-1.466 1.467-1.466h16.133c.81 0 1.467.656 1.467 1.466v8.8H59.4c.81 0 1.466.657 1.466 1.467v11.733H63.8V71.486c0-.81.656-1.467 1.466-1.467H81.4c.81 0 1.467.657 1.467 1.467v11.733h1.467c.81 0 1.466.657 1.466 1.467zm-19.066-1.467h13.2V72.953h-13.2v10.266zM41.799 72.953v-1.467c0-.81.657-1.467 1.467-1.467H46.2v-7.333H33v10.267h8.8zm2.934 10.266h13.2V72.953h-13.2v10.266zm30.8-8.8h-4.4a1.467 1.467 0 000 2.934h4.4a1.467 1.467 0 000-2.934zm-32.267-8.8c0-.81-.657-1.466-1.466-1.466h-4.4a1.467 1.467 0 000 2.933h4.4c.81 0 1.466-.657 1.466-1.467zm10.267 8.8h-4.4a1.467 1.467 0 000 2.934h4.4a1.467 1.467 0 000-2.934zM59.4 46.553h4.4a1.467 1.467 0 000-2.934h-4.4a1.467 1.467 0 000 2.934z" fill="#fff"/></svg><svg fill="none" viewBox="0 0 110 110" id="advantage3" xmlns="http://www.w3.org/2000/svg"><path d="M59.976 77.34a1.568 1.568 0 11-3.136 0 1.568 1.568 0 013.136 0zm3.93-61.94c.81 0 1.467-.657 1.467-1.466V11a1.467 1.467 0 00-2.934 0v2.934c0 .81.657 1.466 1.467 1.466zm0 2.934c-.81 0-1.467.656-1.467 1.466v2.934a1.467 1.467 0 002.934 0V19.8c0-.81-.657-1.466-1.467-1.466zm-5.867 0h2.933a1.467 1.467 0 000-2.934H58.04a1.467 1.467 0 000 2.934zm8.8 0h2.933a1.467 1.467 0 000-2.934H66.84a1.467 1.467 0 000 2.934zm23.467 71.133a5.14 5.14 0 01-5.133 5.133 5.14 5.14 0 01-5.134-5.133 5.14 5.14 0 015.133-5.133 5.14 5.14 0 015.134 5.133zm-2.933 0c0-1.213-.987-2.2-2.2-2.2-1.214 0-2.2.987-2.2 2.2s.986 2.2 2.2 2.2c1.213 0 2.2-.987 2.2-2.2zM54.108 40.673a1.568 1.568 0 10-3.136 0 1.568 1.568 0 003.136 0zm4.299 40.966a1.568 1.568 0 100 3.136 1.568 1.568 0 000-3.136zM45.55 33.804a8.407 8.407 0 011.546 4.86c0 4.666-3.796 8.462-8.462 8.462-.72 0-1.422-.123-2.11-.3a8.457 8.457 0 01-4.885 2.816v21.914a25.052 25.052 0 012.477-3.652c4.24-5.202 11.642-6 11.956-6.031a1.469 1.469 0 011.605 1.308c.032.313.745 7.724-3.494 12.927-3.395 4.165-7.37 6.59-10.361 6.59-.812 0-1.547-.186-2.183-.556v5.125h4.4c6.47 0 11.733 5.263 11.733 11.733a1.467 1.467 0 01-2.933 0c0-4.852-3.948-8.8-8.8-8.8H24.305c-4.852 0-8.8 3.948-8.8 8.8a1.467 1.467 0 01-2.933 0c0-6.47 5.264-11.733 11.733-11.733h4.4V72.796a4.28 4.28 0 01-1.461.254c-3.035 0-7.018-2.724-10.25-7.286-3.88-5.476-2.67-12.823-2.616-13.132a1.467 1.467 0 011.69-1.197c.31.052 7.642 1.347 11.521 6.823.404.57.769 1.152 1.117 1.735v-10.33a8.45 8.45 0 01-4.986-2.8 8.467 8.467 0 01-2.01.263c-4.666 0-8.462-3.796-8.462-8.462 0-1.803.572-3.473 1.537-4.847a8.47 8.47 0 01-2.868-6.345c0-4.666 3.796-8.462 8.462-8.462.759 0 1.5.108 2.22.304 1.413-2.71 4.244-4.568 7.506-4.568 3.194 0 6.064 1.796 7.507 4.604a8.418 8.418 0 012.353-.34c4.666 0 8.462 3.797 8.462 8.462 0 2.436-1.08 4.74-2.877 6.332zM28.326 66.695c-.402-2.043-1.543-4.501-3.13-6.741-2.203-3.11-5.967-4.612-8.074-5.241-.105 2.197.062 6.245 2.265 9.355 3.43 4.843 7.339 6.713 8.525 5.877.57-.404.729-1.649.414-3.25zm4.682 12.848c1.124.915 5.15-.686 8.901-5.288 2.407-2.955 2.848-6.983 2.89-9.181-2.144.485-6 1.73-8.41 4.684-1.733 2.128-3.037 4.503-3.576 6.516-.421 1.575-.347 2.827.195 3.269zm6.958-57.6c-2.919 0-5.29 2.28-5.49 5.148A7.342 7.342 0 0137 30.38a8.459 8.459 0 011.633-.178c1.8 0 3.468.57 4.841 1.532a5.557 5.557 0 002.02-4.263 5.535 5.535 0 00-5.53-5.528zm-15.39 1.264c0 1.405.549 2.712 1.485 3.726a7.29 7.29 0 015.607-1.111 8.468 8.468 0 013.32-5.178 5.51 5.51 0 00-4.883-2.966 5.535 5.535 0 00-5.529 5.529zm-9.725 4.265c0 1.658.772 3.198 2.042 4.244a8.41 8.41 0 014.818-1.514c.553 0 1.097.07 1.634.176.178-.462.397-.903.661-1.315a8.411 8.411 0 01-2.363-5.856c0-.367.031-.726.077-1.08a5.505 5.505 0 00-1.34-.184 5.534 5.534 0 00-5.53 5.529zm7.29 16.69a8.4 8.4 0 01-.498-2.835c0-1.93.678-3.78 1.88-5.279a7.26 7.26 0 01-.656-2.776 5.546 5.546 0 00-1.156-.136 5.535 5.535 0 00-5.529 5.528 5.535 5.535 0 005.529 5.529c.144 0 .287-.02.43-.032zm13.493-2.835c0-.98-.27-1.922-.75-2.754-1.279 1.082-2.91 1.76-4.712 1.76-1.849 0-3.52-.71-4.812-1.844a5.526 5.526 0 00-.784 2.838 5.535 5.535 0 005.529 5.529 5.535 5.535 0 005.529-5.53zm8.529-2.663a5.535 5.535 0 00-5.529-5.529c-.393 0-.777.056-1.156.137a7.25 7.25 0 01-.717 2.888c1.15 1.48 1.806 3.276 1.806 5.167 0 .987-.179 1.931-.491 2.813.186.019.37.053.558.053a5.535 5.535 0 005.529-5.529zm53.506 19.78c-.936 1.965-3.22 2.982-6.321 2.982-1.632 0-3.5-.299-5.507-.873a15.784 15.784 0 01-.618 3.49c-1.087 3.586-3.357 6.154-6.392 7.23a9.268 9.268 0 01-3.11.533c-2.136 0-4.334-.718-6.409-2.122a15.84 15.84 0 01-2.729-2.377c-2.781 4-6.005 6.319-8.72 6.319a4.29 4.29 0 01-1.862-.412c-1.984-.945-3.037-3.308-2.963-6.653.064-2.936.983-6.407 2.587-9.773 1.654-3.47 3.853-6.43 6.141-8.31a9.469 9.469 0 01-2.456-3.74c-1.026-2.893-.558-5.951.989-8.35l-3.96-2.961a1.468 1.468 0 011.758-2.35l4.16 3.112a9.467 9.467 0 012.853-1.623 9.495 9.495 0 013.24-.542l1.27-5.032a1.475 1.475 0 011.78-1.063 1.467 1.467 0 011.064 1.781l-1.21 4.788c.387.127.77.27 1.142.448a9.465 9.465 0 014.884 5.42 9.46 9.46 0 01.445 4.502c2.96.027 6.445.939 9.889 2.58 7.548 3.598 11.87 9.184 10.055 12.996zm-15.116-2.61c-2.777.729-5.562 1.568-8.296 2.536a104.4 104.4 0 00-8.041 3.254 15.693 15.693 0 002.503 3.677 107.465 107.465 0 017.009-2.783 107.21 107.21 0 017.196-2.254 15.684 15.684 0 00-.371-4.43zM71.64 44.647c-.729 0-1.44.12-2.12.36-2.133.757-3.755 2.644-4.565 5.315-.075.25-.133.508-.193.764 2.042-.871 4.052-1.68 6.065-2.393 2.044-.725 4.126-1.37 6.21-1.968-.206-.16-.41-.321-.623-.465-1.576-1.067-3.215-1.613-4.774-1.613zm-9.565-.89c.333.94.868 1.78 1.565 2.473 1.218-1.89 2.886-3.273 4.9-3.988 2.015-.714 4.18-.69 6.316.01a6.56 6.56 0 00-.34-2.905 6.555 6.555 0 00-3.381-3.754 6.553 6.553 0 00-5.045-.263 6.608 6.608 0 00-4.015 8.426zm2.611 21.106a20.02 20.02 0 01-2.06-4.186c-.92-2.597-1.277-5.273-1.088-7.802-1.202 1.453-2.337 3.228-3.264 5.174-1.43 3-2.247 6.045-2.303 8.575-.045 2.06.438 3.534 1.292 3.94 1.423.68 4.614-1.329 7.423-5.701zm21.667-16.767a25.043 25.043 0 00-5.566-1.888c1.689 1.826 3.057 4.088 3.958 6.629a19.988 19.988 0 011.044 4.636c4.928 1.598 8.557 1.128 9.232-.292.803-1.686-2.106-5.958-8.668-9.085z" fill="#fff"/></svg><svg fill="none" viewBox="0 0 110 110" id="advantage4" xmlns="http://www.w3.org/2000/svg"><path d="M74.95 24.933V22a1.466 1.466 0 112.933 0v2.933a1.466 1.466 0 11-2.933 0zm1.466 4.4c-.81 0-1.466.657-1.466 1.467v2.933a1.466 1.466 0 102.933 0V30.8c0-.81-.656-1.467-1.467-1.467zm-5.867 0h2.934a1.466 1.466 0 100-2.933h-2.934a1.466 1.466 0 100 2.933zm8.8 0h2.934a1.466 1.466 0 100-2.933H79.35a1.466 1.466 0 100 2.933zm-30.8-12.466a5.14 5.14 0 015.134-5.134 5.14 5.14 0 015.133 5.134A5.14 5.14 0 0153.683 22a5.14 5.14 0 01-5.133-5.133zm2.934 0c0 1.213.986 2.2 2.2 2.2 1.213 0 2.2-.987 2.2-2.2 0-1.214-.987-2.2-2.2-2.2-1.214 0-2.2.986-2.2 2.2zM82.55 47.273a1.568 1.568 0 103.136 0 1.568 1.568 0 00-3.136 0zm-36.6 28.268c-.263.45-.745.726-1.266.726h-6.6c0 .002-.001.005-.003.007l-3.864 6.6c-.263.45-.745.726-1.266.726h-7.73c-.521 0-1.003-.276-1.266-.726l-3.865-6.6a1.465 1.465 0 010-1.482l3.865-6.6c.263-.45.745-.726 1.265-.726h6.6l.003-.007 3.865-6.6c.263-.45.745-.726 1.266-.726h7.73c.521 0 1.003.276 1.266.726l3.865 6.6a1.465 1.465 0 010 1.482l-3.865 6.6zm-10.833-.008L32.11 70.4h-6.049l-3.006 5.133 3.006 5.134h6.05l3.006-5.134zm65.909 3.933c-1.977 10.718-13.817 18.8-27.543 18.8-5.504 0-10.69-1.315-15.072-3.563a11.743 11.743 0 01-8.403 3.564H20.691C14.217 98.267 8.95 93 8.95 86.526V60.14c0-4.776 2.965-9.102 7.333-10.879v-2.329a5.874 5.874 0 01-5.867-5.866 5.874 5.874 0 015.867-5.867h.148c.682-3.343 3.644-5.867 7.185-5.867h23.467c3.541 0 6.504 2.524 7.185 5.867h.148a5.873 5.873 0 015.867 5.867 5.873 5.873 0 01-5.867 5.866v2.33c4.367 1.776 7.334 6.102 7.334 10.878V77.733h.27a4.35 4.35 0 01-.27-1.466c0-2.426 1.974-4.4 4.4-4.4h.27a4.35 4.35 0 01-.27-1.467c0-2.01 1.355-3.71 3.2-4.233.172-1.018.245-2.671-.923-3.255a1.468 1.468 0 01.944-2.75c.344.069 8.349 1.732 8.51 7.139.148.09.413.21.6.294.818.365 2.336 1.045 2.336 2.805 0 .517-.106 1.006-.27 1.467h.27c2.426 0 4.4 1.974 4.4 4.4 0 .516-.106 1.005-.27 1.466h14.637a1.465 1.465 0 011.442 1.733zm-30.477-7.6h5.867c.755 0 1.378-.572 1.458-1.306a6.43 6.43 0 00-.59-.288c-.816-.365-2.334-1.045-2.334-2.805 0-1.334-1.203-2.38-2.591-3.126.135 1.319-.103 2.647-.418 3.59a1.465 1.465 0 01-1.391 1.003c-.81 0-1.467.658-1.467 1.466 0 .809.657 1.467 1.466 1.467zm-4.4 5.867h7.334c.81 0 1.466.657 1.466 1.467v3.667a.734.734 0 001.467 0V79.2c0-.81.656-1.467 1.467-1.467h2.933c.81 0 1.467-.658 1.467-1.466 0-.809-.658-1.467-1.467-1.467H66.15c-.809 0-1.466.658-1.466 1.467 0 .808.657 1.466 1.466 1.466zM19.217 44h2.933v-5.867h-2.933V44zm5.867 0h2.933v-5.867h-2.933V44zm5.867 0h2.933v-5.867h-2.934V44zm5.866 0h2.933v-5.867h-2.933V44zm5.867 0h2.933v-5.867h-2.933V44zm5.867 0h2.933v-5.867H48.55V44zm-29.064-8.8h31.727c-.608-1.704-2.22-2.933-4.13-2.933H23.616c-1.91 0-3.522 1.23-4.13 2.933zm36.285 57.977c-5.164-3.379-8.812-8.19-9.83-13.711a1.467 1.467 0 011.442-1.732h11.433V60.14c0-3.862-2.585-7.331-6.286-8.437a1.466 1.466 0 01-1.047-1.405v-3.366H19.216V50.3c0 .649-.426 1.22-1.047 1.405-3.702 1.106-6.286 4.575-6.286 8.437v26.385c0 4.856 3.951 8.807 8.808 8.807h29.317c2.127 0 4.171-.779 5.763-2.156zm41.942-12.51H79.35v2.2a3.67 3.67 0 01-3.667 3.666 3.67 3.67 0 01-3.667-3.666v-2.2H49.254c2.633 8.473 12.67 14.666 24.229 14.666 11.558 0 21.596-6.192 24.23-14.666zM22.15 57.2a1.467 1.467 0 000-2.933h-2.236a5.103 5.103 0 00-5.098 5.097V61.6a1.467 1.467 0 002.934 0v-2.236c0-1.193.97-2.164 2.163-2.164h2.236z" fill="#fff"/></svg><svg fill="none" viewBox="0 0 40 22" id="arrow" xmlns="http://www.w3.org/2000/svg"><g clip-path="url(#eclip0_1_237)"><path d="M.378 11.431a1.329 1.329 0 010-1.856L8.59 1.222a1.275 1.275 0 011.824 0 1.329 1.329 0 010 1.856l-7.299 7.425 7.3 7.425a1.328 1.328 0 010 1.856 1.275 1.275 0 01-1.825 0L.378 11.43zM40 11.816H1.29V9.19H40v2.626z" fill="#EC7A21"/></g><defs><clipPath id="eclip0_1_237"><path fill="#fff" transform="matrix(-1 0 0 1 40 .003)" d="M0 0h40v21H0z"/></clipPath></defs></svg><svg fill="none" viewBox="0 0 159 66" id="logo" xmlns="http://www.w3.org/2000/svg"><path d="M10.8 51.5V62H9.75v-8.91l-3.675 6.15h-.15L2.25 53.09V62H1.2V51.5h1.305L6 57.35l3.495-5.85H10.8zm5.712 2.82c1.11 0 2.005.395 2.685 1.185.69.78 1.035 1.705 1.035 2.775 0 .11-.01.265-.03.465h-6.585c.1.76.42 1.365.96 1.815.55.44 1.225.66 2.025.66.57 0 1.06-.115 1.47-.345.42-.24.735-.55.945-.93l.87.51c-.33.53-.78.95-1.35 1.26-.57.31-1.22.465-1.95.465-1.18 0-2.14-.37-2.88-1.11-.74-.74-1.11-1.68-1.11-2.82 0-1.12.365-2.055 1.095-2.805s1.67-1.125 2.82-1.125zm0 .96c-.78 0-1.435.235-1.965.705-.52.46-.83 1.06-.93 1.8h5.595c-.1-.79-.405-1.405-.915-1.845a2.648 2.648 0 00-1.785-.66zm11.302 5.76h1.05v2.97h-.99V62h-6.12v2.01h-.99v-2.97h.915c.51-.67.765-1.615.765-2.835V54.5h5.37v6.54zm-4.935 0h3.945v-5.58h-3.39v2.745c0 1.15-.185 2.095-.555 2.835zM41.25 62l-.974-2.58h-4.98L34.322 62h-1.11l4.034-10.5h1.08L42.362 62h-1.11zm-5.58-3.57h4.23l-2.115-5.625-2.114 5.625zM49.71 54.5V62h-.99v-6.54h-3.39v3.345c0 1.25-.24 2.11-.72 2.58-.47.47-1.12.675-1.95.615v-.93c.57.06.99-.075 1.26-.405.28-.33.42-.95.42-1.86V54.5h5.37zm7.497 0v.96h-2.655V62h-.99v-6.54h-2.655v-.96h6.3zm7.363 0h.99V62h-.99v-1.47c-.69 1.1-1.7 1.65-3.03 1.65-1.07 0-1.985-.38-2.745-1.14-.75-.76-1.125-1.69-1.125-2.79s.375-2.03 1.125-2.79c.76-.76 1.675-1.14 2.745-1.14 1.33 0 2.34.55 3.03 1.65V54.5zm-5.055 5.865c.57.57 1.27.855 2.1.855.83 0 1.53-.285 2.1-.855.57-.58.855-1.285.855-2.115 0-.83-.285-1.53-.855-2.1-.57-.58-1.27-.87-2.1-.87-.83 0-1.53.29-2.1.87-.57.57-.855 1.27-.855 2.1 0 .83.285 1.535.855 2.115zm9.341-7.065v-.87h3.9v.87h-3.9zm4.26 1.2h.84V62h-.99v-5.775L68.496 62h-.84v-7.5h.99v5.775l4.47-5.775zm6.429 7.68c-1.13 0-2.07-.375-2.82-1.125-.75-.76-1.125-1.695-1.125-2.805s.375-2.04 1.125-2.79c.75-.76 1.69-1.14 2.82-1.14.74 0 1.405.18 1.995.54.59.35 1.02.825 1.29 1.425l-.81.465a2.28 2.28 0 00-.975-1.065 2.81 2.81 0 00-1.5-.405c-.83 0-1.53.29-2.1.87-.57.57-.855 1.27-.855 2.1 0 .83.285 1.535.855 2.115.57.57 1.27.855 2.1.855.56 0 1.06-.13 1.5-.39.44-.27.785-.63 1.035-1.08l.825.48c-.31.6-.765 1.075-1.365 1.425-.6.35-1.265.525-1.995.525zM90.386 62h-1.32l-3.75-3.615V62h-.99v-7.5h.99v3.315l3.57-3.315h1.35l-3.87 3.6 4.02 3.9zm6.813-7.5h.84V62h-.99v-5.775L92.579 62h-.84v-7.5h.99v5.775l4.47-5.775zm9.233 7.5h-1.185l-2.34-3.09-2.34 3.09h-1.185l2.94-3.885-2.745-3.615h1.185l2.145 2.835 2.145-2.835h1.185l-2.73 3.615L106.432 62zm11.247-.96h1.2v2.97h-.99V62h-6.36v-7.5h.99v6.54h4.17V54.5h.99v6.54zm7.467-2.895c.82.3 1.23.885 1.23 1.755 0 .61-.205 1.115-.615 1.515-.4.39-.98.585-1.74.585h-3.645v-7.5h3.345c.73 0 1.295.19 1.695.57.4.37.6.85.6 1.44 0 .75-.29 1.295-.87 1.635zm-1.425-2.685h-2.355v2.28h2.355c.87 0 1.305-.39 1.305-1.17 0-.35-.115-.62-.345-.81-.22-.2-.54-.3-.96-.3zm.3 5.58c.44 0 .775-.105 1.005-.315.24-.21.36-.505.36-.885 0-.35-.12-.625-.36-.825-.23-.21-.565-.315-1.005-.315h-2.655v2.34h2.655zm7.32-6.72c1.11 0 2.005.395 2.685 1.185.69.78 1.035 1.705 1.035 2.775 0 .11-.01.265-.03.465h-6.585c.1.76.42 1.365.96 1.815.55.44 1.225.66 2.025.66.57 0 1.06-.115 1.47-.345.42-.24.735-.55.945-.93l.87.51c-.33.53-.78.95-1.35 1.26-.57.31-1.22.465-1.95.465-1.18 0-2.14-.37-2.88-1.11-.74-.74-1.11-1.68-1.11-2.82 0-1.12.365-2.055 1.095-2.805s1.67-1.125 2.82-1.125zm0 .96c-.78 0-1.435.235-1.965.705-.52.46-.83 1.06-.93 1.8h5.595c-.1-.79-.405-1.405-.915-1.845a2.648 2.648 0 00-1.785-.66zm10.402-.78v.96h-2.655V62h-.99v-6.54h-2.655v-.96h6.3zm7.198 6.555c-.76.75-1.69 1.125-2.79 1.125s-2.035-.375-2.805-1.125c-.76-.76-1.14-1.695-1.14-2.805s.38-2.04 1.14-2.79c.77-.76 1.705-1.14 2.805-1.14s2.03.38 2.79 1.14c.77.75 1.155 1.68 1.155 2.79s-.385 2.045-1.155 2.805zm-4.89-.69c.57.57 1.27.855 2.1.855.83 0 1.53-.285 2.1-.855.57-.58.855-1.285.855-2.115 0-.83-.285-1.53-.855-2.1-.57-.58-1.27-.87-2.1-.87-.83 0-1.53.29-2.1.87-.57.57-.855 1.27-.855 2.1 0 .83.285 1.535.855 2.115zm12.472-2.22c.82.3 1.23.885 1.23 1.755 0 .61-.205 1.115-.615 1.515-.4.39-.98.585-1.74.585h-3.645v-7.5h3.345c.73 0 1.295.19 1.695.57.4.37.6.85.6 1.44 0 .75-.29 1.295-.87 1.635zm-1.425-2.685h-2.355v2.28h2.355c.87 0 1.305-.39 1.305-1.17 0-.35-.115-.62-.345-.81-.22-.2-.54-.3-.96-.3zm.3 5.58c.44 0 .775-.105 1.005-.315.24-.21.36-.505.36-.885 0-.35-.12-.625-.36-.825-.23-.21-.565-.315-1.005-.315h-2.655v2.34h2.655z" fill="#2D2D2D"/><path d="M66.008 35.888c0 .224-.032.592-.096 1.104-.096.576-.432.88-1.008.912-.224.032-.384-.016-.48-.144-.096-.128-.192-.352-.288-.672-.064-.288-.24-.752-.528-1.392-.256-.672-.416-1.184-.48-1.536-.128-.672-.304-2.224-.528-4.656a169.76 169.76 0 00-.432-3.456c-.192-1.088-.848-1.616-1.968-1.584-.128 0-.336.032-.624.096a3.327 3.327 0 01-.672.096c-.992.032-1.584.128-1.776.288-.192.16-.336.736-.432 1.728-.128 1.184-.256 2.896-.384 5.136a132.555 132.555 0 00-.192 2.928c-.032.544-.064.976-.096 1.296-.096.544-.192.88-.288 1.008-.48.48-.896.72-1.248.72-.192 0-.496-.336-.912-1.008-.032-.064-.048-.368-.048-.912.32-2.624.48-4.608.48-5.952.032-.672.128-1.632.288-2.88.192-1.28.304-2.16.336-2.64.096-.704.224-1.792.384-3.264.192-1.472.336-2.592.432-3.36.064-.736.128-1.184.192-1.344.64-1.76 1.008-3.888 1.104-6.384 0-.32.048-.656.144-1.008.128-.352.288-.768.48-1.248s.32-.816.384-1.008c.064-.16.32-.656.768-1.488.288-.544.688-.88 1.2-1.008s.992.016 1.44.432c.192.16.32.384.384.672l.864 6.048c.064.416.176.992.336 1.728l.336 1.536c.192 1.12.496 3.072.912 5.856.128.928.288 2.256.48 3.984.224 1.696.384 2.944.48 3.744l1.152 7.632h-.096zM60.2 14.192c.032-.032.096-.048.192-.048-.064-.48-.144-1.2-.24-2.16a67.835 67.835 0 00-.24-2.208 1.366 1.366 0 00-.24-.288 5.977 5.977 0 01-.192-.336c-.064.16-.128.368-.192.624 0 .064-.016.208-.048.432 0 .224-.016.4-.048.528a67.885 67.885 0 00-.576 2.4c-.16.864-.288 1.616-.384 2.256a133.2 133.2 0 01-.288 2.448c-.128.992-.224 1.744-.288 2.256-.128.864-.048 1.44.24 1.728.32.288.912.336 1.776.144.512-.128.88-.272 1.104-.432.32-.192.464-.432.432-.72 0-.736-.08-1.584-.24-2.544-.096-.544-.352-1.904-.768-4.08z" fill="#EC7A21"/><path d="M71.01 16.112c-.064 3.2-.128 5.584-.192 7.152 0 .576-.032 1.44-.096 2.592a51.135 51.135 0 00-.096 2.592c-.064 1.856-.096 4.608-.096 8.256 0 .48-.24.912-.72 1.296-.48.352-.944.464-1.392.336-.384-.128-.608-.464-.672-1.008-.16-1.152-.208-2.16-.144-3.024.064-1.504.224-3.872.48-7.104.032-.224.096-.656.192-1.296s.144-1.072.144-1.296c.032-.256.032-.704 0-1.344-.096-.64-.096-1.808 0-3.504.128-1.728.08-2.912-.144-3.552-.192-.672-.208-1.808-.048-3.408 0-.32.176-1.712.528-4.176.032-.192.048-.448.048-.768v-.72c.032-.32.064-.832.096-1.536a19.08 19.08 0 00.096-1.536c0-.608.384-.96 1.152-1.056 1.056-.16 1.536.304 1.44 1.392-.384 3.968-.64 6.896-.768 8.784 0 .288.032 1.264.096 2.928h.096zm4.32 16.704c.384-3.136.576-4.736.576-4.8.096-2.016.176-4.992.24-8.928.064-1.152.112-2 .144-2.544 0-.576-.272-.928-.816-1.056-.64-.128-1.376-.384-2.208-.768-.416-.192-.64-.464-.672-.816 0-.352.176-.656.528-.912.576-.352 1.28-.448 2.112-.288.544.032.88.016 1.008-.048.128-.096.224-.4.288-.912.32-2.88.576-5.056.768-6.528.064-.576.176-1.024.336-1.344.256-.576.672-.752 1.248-.528.16.064.368.352.624.864.128.288.16.56.096.816-.128 1.44-.352 3.792-.672 7.056-.064.544-.016.88.144 1.008.16.096.512.064 1.056-.096.096-.032.208-.08.336-.144.16-.064.272-.096.336-.096.768-.16 1.264.096 1.488.768.256.672.08 1.152-.528 1.44-.544.288-1.184.464-1.92.528-.672.096-1.056.208-1.152.336-.096.096-.144.496-.144 1.2-.064 7.136-.224 11.76-.48 13.872-.064.704 0 1.76.192 3.168.064.704.272 1.136.624 1.296.544.256 1.248.384 2.112.384.16 0 .4-.048.72-.144.352-.128.608-.192.768-.192.416-.032.72.096.912.384.192.256.208.56.048.912-.192.48-.704 1.008-1.536 1.584-.8.608-1.456.864-1.968.768-1.856-.416-3.056-1.232-3.6-2.448-.8-1.664-1.136-2.928-1.008-3.792zm18.06-10.368c0-.96-.464-2.112-1.392-3.456-.896-1.344-1.824-1.92-2.784-1.728-.576.16-1.024.768-1.344 1.824-.32 1.056-.576 1.696-.768 1.92-.288.352-.528.56-.72.624-.192.064-.336 0-.432-.192a3.609 3.609 0 01-.24-.624 17.609 17.609 0 01-.096-.864 4.918 4.918 0 01.528-2.592 5.071 5.071 0 011.776-2.064c1.312-.864 2.832-.736 4.56.384 1.76 1.088 2.832 2.384 3.216 3.888a9.4 9.4 0 01.288 1.536c.064.576.096 1.024.096 1.344 0 .32-.016.864-.048 1.632a49.218 49.218 0 00-.048 1.44c0 .896-.112 2.528-.336 4.896-.224 2.336-.304 4.16-.24 5.472.064.768-.16 1.408-.672 1.92-.48.48-1.024.624-1.632.432-.576-.192-.912-.752-1.008-1.68.032.224-.16.448-.576.672-.384.192-.88.336-1.488.432-.608.096-1.248.16-1.92.192-.64 0-1.232-.08-1.776-.24-.544-.16-.928-.4-1.152-.72-1.024-1.472-1.344-3.248-.96-5.328.384-2.08 1.344-3.92 2.88-5.52 1.408-1.44 3.056-2 4.944-1.68.416.096.704.08.864-.048.192-.128.32-.432.384-.912 0-.192.032-.512.096-.96zm-6.96 10.464c-.16 1.696.288 2.688 1.344 2.976 1.856.512 3.296-.256 4.32-2.304.8-1.664 1.008-3.312.624-4.944-.384-1.536-1.184-2.128-2.4-1.776-.48.16-1.008.464-1.584.912-.448.32-.912 1.008-1.392 2.064-.48 1.056-.784 2.08-.912 3.072zm12.301 3.168c-.16-1.856-.24-3.184-.24-3.984l.288-3.744c.096-.48.128-.784.096-.912-.256-2.272-.048-4.816.624-7.632.096-.448.192-1.104.288-1.968.128-.896.224-1.52.288-1.872.032-.192.096-.448.192-.768s.16-.544.192-.672c.192-.544.464-.752.816-.624.608.224.944.464 1.008.72.096.256.112.8.048 1.632-.096.992-.272 2.512-.528 4.56-.224 2.048-.4 3.568-.528 4.56-.256 2.432-.256 6.064 0 10.896v1.2c-.128.8-.624 1.232-1.488 1.296-.672 0-1.024-.288-1.056-.864V36.08zm4.704-29.472c0 .384-.192.864-.576 1.44-.352.576-.704.944-1.056 1.104-.256.096-.56.064-.912-.096-.352-.192-.592-.432-.72-.72a10.186 10.186 0 01-.24-.528 3.134 3.134 0 00-.144-.48c-.32-.608-.128-1.04.576-1.296.096-.032.256-.112.48-.24.224-.128.4-.208.528-.24.576-.288 1.056-.32 1.44-.096.384.192.592.576.624 1.152z" fill="#2D2D2D"/><path d="M118.28 11.744c.128 2.56-.384 4.848-1.536 6.864-.096.128-.192.336-.288.624a2.904 2.904 0 01-.24.528c-.192.224-.288.416-.288.576.032.128.24.208.624.24.16.032.56.32 1.2.864 1.76 1.376 2.672 3.408 2.736 6.096 0 .416-.08 1.824-.24 4.224-.128 1.248-.768 2.512-1.92 3.792-.736.864-1.584 1.456-2.544 1.776-.96.32-2.128.544-3.504.672-.288.064-.608.032-.96-.096l-.72-.432-.72-.432c-.896-.416-1.376-1.344-1.44-2.784 0-.48.032-1.2.096-2.16.064-.96.096-1.6.096-1.92.064-2.56.128-4.448.192-5.664.032-.608.096-1.696.192-3.264.096-1.6.16-2.816.192-3.648.064-1.568.096-3.872.096-6.912 0-.096.016-.304.048-.624s.032-.576 0-.768c-.16-1.696-.272-2.736-.336-3.12-.16-.8 0-1.392.48-1.776.608-.48 1.232-.48 1.872 0 .384.288 1.024.4 1.92.336.896-.096 1.744.144 2.544.72.8.544 1.344 1.296 1.632 2.256.672 2.016.944 3.36.816 4.032zm-.288 16.464a24.987 24.987 0 01-.288-1.2c-.128-.736-.272-1.296-.432-1.68-.8-1.664-2.048-2.432-3.744-2.304a6.617 6.617 0 00-.768.192c-.32.064-.56.096-.72.096-.512.032-.768.32-.768.864.064 1.088.096 1.968.096 2.64 0 3.264-.016 5.728-.048 7.392 0 .576.096.944.288 1.104.224.128.624.112 1.2-.048 1.408-.48 2.336-.832 2.784-1.056 1.184-.512 1.856-1.456 2.016-2.832.064-.448.192-1.504.384-3.168zm-2.304-15.552c.064-1.056.096-1.616.096-1.68a5.015 5.015 0 00-.24-.816c-.096-.384-.16-.608-.192-.672-.16-.736-.512-1.312-1.056-1.728-.544-.416-1.184-.592-1.92-.528-.192 0-.336.144-.432.432-.128 1.216-.192 2.128-.192 2.736 0 .192-.096 2.976-.288 8.352 0 .032.048.384.144 1.056.096-.032.224-.048.384-.048.192-.032.352-.064.48-.096.16-.032.272-.08.336-.144.384-.352.832-.912 1.344-1.68.064-.096.128-.272.192-.528.064-.288.144-.48.24-.576.896-1.312 1.264-2.672 1.104-4.08z" fill="#EC7A21"/><path d="M133.054 20.048c.192 1.92 0 3.728-.576 5.424-.576 1.664-1.408 2.56-2.496 2.688-1.792.192-3.088.336-3.888.432-.768.096-1.2.512-1.296 1.248-.129 1.216.128 2.464.768 3.744.448.928 1.088 1.44 1.92 1.536.352.032.848.144 1.488.336.992.256 1.904-.064 2.736-.96.512-.576.992-.64 1.44-.192.48.416.464.912-.048 1.488-.384.48-.656.8-.816.96l-.672.672c-.32.32-.592.512-.816.576l-.864.288a2.885 2.885 0 01-1.2.144 17.337 17.337 0 01-1.488-.192c-1.248-.224-2.192-.704-2.832-1.44-.608-.736-1.136-1.76-1.584-3.072-.256-.8-.4-1.728-.432-2.784 0-1.056.032-2.016.096-2.88 0-2.304.096-4.016.288-5.136.576-3.264 1.824-5.568 3.744-6.912l.384-.384c.16-.192.304-.336.432-.432.128-.128.272-.224.431-.288 1.505-.608 2.705-.384 3.601.672.896 1.056 1.456 2.544 1.68 4.464zm-5.472-2.448l-2.448 7.872c.032.448.112.736.24.864.16.096.464.112.912.048.096-.032.736-.128 1.92-.288.736-.064 1.232-.192 1.488-.384.288-.224.544-.672.768-1.344.544-1.184.816-2.288.816-3.312-.064-.704-.208-1.312-.432-1.824a4.096 4.096 0 00-.768-1.248 2.316 2.316 0 00-1.152-.816c-.448-.192-.896-.048-1.344.432zm18.503 2.448c.192 1.92 0 3.728-.576 5.424-.576 1.664-1.408 2.56-2.496 2.688-1.792.192-3.088.336-3.888.432-.768.096-1.2.512-1.296 1.248-.128 1.216.128 2.464.768 3.744.448.928 1.088 1.44 1.92 1.536.352.032.848.144 1.488.336.992.256 1.904-.064 2.736-.96.512-.576.992-.64 1.44-.192.48.416.464.912-.048 1.488-.384.48-.656.8-.816.96l-.672.672c-.32.32-.592.512-.816.576l-.864.288a2.885 2.885 0 01-1.2.144 17.337 17.337 0 01-1.488-.192c-1.248-.224-2.192-.704-2.832-1.44-.608-.736-1.136-1.76-1.584-3.072-.256-.8-.4-1.728-.432-2.784 0-1.056.032-2.016.096-2.88 0-2.304.096-4.016.288-5.136.576-3.264 1.824-5.568 3.744-6.912l.384-.384c.16-.192.304-.336.432-.432.128-.128.272-.224.432-.288 1.504-.608 2.704-.384 3.6.672.896 1.056 1.456 2.544 1.68 4.464zm-5.472-2.448l-2.448 7.872c.032.448.112.736.24.864.16.096.464.112.912.048.096-.032.736-.128 1.92-.288.736-.064 1.232-.192 1.488-.384.288-.224.544-.672.768-1.344.544-1.184.816-2.288.816-3.312-.064-.704-.208-1.312-.432-1.824a4.096 4.096 0 00-.768-1.248 2.316 2.316 0 00-1.152-.816c-.448-.192-.896-.048-1.344.432zm10.631 1.968c-.16.64.112 1.44.816 2.4a95.874 95.874 0 013.552 4.368c.48.608 1.104 1.552 1.872 2.832.256.544.4 1.168.432 1.872.032.672.016 1.2-.048 1.584-.064.352-.192.976-.384 1.872-.096.672-.304 1.2-.624 1.584-.608.896-1.152 1.456-1.632 1.68-1.472.736-2.704 1.12-3.696 1.152-1.216 0-2.16-.496-2.832-1.488-.64-1.12-1.024-1.952-1.152-2.496-.16-.832.208-1.44 1.104-1.824.672-.224 1.184.064 1.536.864.032.096.192.56.48 1.392.128.608.576.88 1.344.816 1.824-.384 2.896-1.184 3.216-2.4.448-1.632.288-2.976-.48-4.032-.384-.448-.912-1.136-1.584-2.064-.672-.96-1.168-1.632-1.488-2.016-.256-.352-.656-.88-1.2-1.584a41.285 41.285 0 00-1.104-1.536c-.8-1.088-1.056-2.784-.768-5.088.16-.928.896-2.24 2.208-3.936 1.024-1.28 2.304-1.68 3.84-1.2.224.064.896.336 2.016.816.608.288.88.896.816 1.824-.064.48-.208.784-.432.912-.224.096-.576.064-1.056-.096-.16-.064-.384-.16-.672-.288-.256-.128-.4-.192-.432-.192-1.088-.608-1.968-.384-2.64.672-.832 1.28-1.168 2.48-1.008 3.6z" fill="#2D2D2D"/><path d="M43.118 12.976c-1.83-.743-3.863-.837-5.879-.27-1.534.43-3 1.22-4.377 2.354a9.873 9.873 0 00-3.624-4.523c.211-.947.722-2.451 1.569-3.62.388.156.81.242 1.25.242 1.914 0 3.471-1.606 3.471-3.58 0-1.973-1.557-3.579-3.47-3.579-1.914 0-3.47 1.606-3.47 3.58 0 .391.062.768.175 1.121-1.13 1.393-1.86 3.144-2.245 4.57a9.279 9.279 0 00-5.037 0c-.385-1.426-1.115-3.177-2.245-4.57.114-.353.176-.73.176-1.121 0-1.974-1.557-3.58-3.47-3.58-1.914 0-3.47 1.606-3.47 3.58s1.556 3.58 3.47 3.58c.44 0 .862-.087 1.25-.242.848 1.168 1.358 2.672 1.57 3.62a9.873 9.873 0 00-3.624 4.522c-1.377-1.134-2.843-1.923-4.378-2.354-2.016-.567-4.048-.473-5.878.27C1.9 14.188-.017 16.903 0 19.894c.01 1.73.674 3.419 1.92 4.886 1.014 1.194 2.396 2.23 4.12 3.089-.774 1.992-.371 4.305 1.193 6.118 1.126 1.304 2.857 2.266 4.77 2.266a5.76 5.76 0 001.75-.275c1.168 4.099 4.588 7.212 8.778 7.81V48h2.938v-4.212c4.19-.598 7.61-3.711 8.777-7.81a5.76 5.76 0 001.752.275c1.912 0 3.643-.962 4.769-2.266 1.564-1.813 1.967-4.126 1.194-6.118 1.723-.86 3.104-1.895 4.12-3.09 1.245-1.466 1.909-3.156 1.919-4.885.017-2.991-1.9-5.706-4.882-6.918zm-11.06-9.944a.54.54 0 01.531.548.54.54 0 01-.531.548.54.54 0 01-.531-.548.54.54 0 01.53-.548zM15.942 4.128a.54.54 0 01-.531-.548.54.54 0 01.531-.548.54.54 0 01.531.548.54.54 0 01-.531.548zM24 11.956c3.66 0 6.637 3.072 6.637 6.847 0 3.775-2.977 6.847-6.637 6.847-3.66 0-6.637-3.072-6.637-6.847 0-3.776 2.977-6.847 6.637-6.847zm-5.278 15.086a9.314 9.314 0 0010.556 0 8.03 8.03 0 011.911 2.889H16.811a8.029 8.029 0 011.911-2.89zm-5.399 5.86c-1.518.705-3.006.1-3.895-.93-.795-.922-1.314-2.468-.16-3.794l1.43-1.644-2.002-.785c-3.645-1.43-5.744-3.57-5.757-5.872-.01-1.73 1.176-3.33 3.02-4.08 2.671-1.085 5.806-.082 8.47 2.68a10.025 10.025 0 002.115 6.517c-2.04 2.058-3.221 4.899-3.221 7.884v.024zM24 40.862c-2.191 0-4.171-.947-5.58-2.462h11.16c-1.409 1.515-3.389 2.461-5.58 2.461zm7.35-5.494h-14.7a8.18 8.18 0 01-.386-2.406h15.472a8.18 8.18 0 01-.385 2.406zm7.954-9.62l-2.002.786 1.43 1.644c1.154 1.326.635 2.872-.16 3.793-.89 1.03-2.378 1.637-3.895.93v-.023c0-2.985-1.181-5.825-3.222-7.883a10.025 10.025 0 002.115-6.517c2.665-2.762 5.8-3.766 8.47-2.681 1.845.75 3.03 2.35 3.02 4.08-.012 2.301-2.11 4.442-5.756 5.872z" fill="#EC7A21"/><path d="M21.554 16.054c-.532 0-.964.45-.964 1.007 0 .557.433 1.008.964 1.008.532 0 .965-.451.965-1.008 0-.556-.433-1.007-.965-1.007zM26.439 16.046c-.537 0-.972.454-.972 1.015 0 .561.435 1.016.972 1.016.536 0 .971-.455.971-1.016 0-.56-.435-1.015-.971-1.015z" fill="#2D2D2D"/></svg></svg>